<svg xmlns="http://www.w3.org/2000/svg" xml:space="preserve" width="2757.24mm" height="2764.9mm" version="1.1" style="shape-rendering:geometricPrecision; text-rendering:geometricPrecision; image-rendering:optimizeQuality; fill-rule:evenodd; clip-rule:evenodd"
viewBox="0 0 275723.92 276490.12"
 xmlns:xlink="http://www.w3.org/1999/xlink"
 xmlns:xodm="http://www.corel.com/coreldraw/odm/2003">
 <defs>
 </defs>
 <g id="Слой_x0020_1">
  <metadata id="CorelCorpID_0Corel-Layer"/>
  <path d="M61050.62 199639.32l37362.51 0 74321.34 73267.45c-6636.66,1489.15 -13358.48,3225 -20516.21,3529.71l-23379.24 -23015.62 -20358.16 20365.08c-6380.02,-1382.68 -12647.35,-3207.17 -18788.74,-5525.66l26871.84 -26923.58 -12253.61 -12063.03 -31407.88 31468.5c-5284.57,-2787.45 -10316.01,-5857.24 -15078.32,-9227.27l34279.36 -34258.21 -12348.49 -11967.33c-11822.12,11814.53 -23644.26,23629.06 -35466.38,35443.59 -4219.62,-3956.59 -8189.66,-7985.15 -12070.29,-12247.25l28832.27 -28846.38zm-9393.78 -44043.08l-431.6 24744.86 -31527.75 31519.28c-3204.45,-5222.65 -6221.61,-10187.73 -8704.02,-15611.69l40663.37 -40652.45z"/>
  <path d="M220319.12 188741.81l0 -31916.59 51810.79 -52556.05c1489.14,6636.66 3224.99,13358.48 3529.7,20516.21l-23015.62 23379.24 20365.08 20358.16c-1382.68,6380.02 -3207.17,12647.35 -5525.66,18788.74l-26923.57 -26871.84 -12063.03 12253.61 31468.49 31407.88c-2787.45,5284.57 -5857.24,10316.01 -9227.26,15078.32l-30418.92 -30437.68zm-13417.46 10897.52c11018.15,11025.21 22036.28,22050.45 33054.42,33075.67 -3956.58,4219.62 -7985.15,8189.66 -12247.24,12070.29l-45168.06 -45145.97 24360.88 0.01zm-77877.67 -0.01l24249.01 0 57810.51 57666.83c-5222.65,3204.45 -10187.73,6221.61 -15611.69,8704.02l-66447.83 -66370.85z"/>
  <g>
   <path d="M195914.48 95392.96l-93116.96 -91796.54c6636.66,-1489.15 13358.49,-3225 20516.21,-3529.71l23379.25 23015.62 20358.16 -20365.08c6380.02,1382.68 12647.35,3207.18 18788.73,5525.66l-26871.83 26923.58 12253.61 12063.03 31407.87 -31468.5c5284.58,2787.45 10316.02,5857.24 15078.32,9227.27l-34279.35 34258.21 12348.48 11967.33c11822.13,-11814.53 23644.26,-23629.06 35466.39,-35443.59 4219.61,3956.59 8189.65,7985.15 12070.28,12247.25l-46810.22 46833.12 -588.94 542.35zm24618.55 28855.22l-12158.32 -12158.32 47459.8 -47447.05c3204.45,5222.65 6221.61,10187.73 8704.02,15611.69l-44005.5 43993.68z"/>
   <path id="_1" d="M195914.48 95392.96l-93116.96 -91796.54c6636.66,-1489.15 13358.49,-3225 20516.21,-3529.71l23379.25 23015.62 20358.16 -20365.08c6380.02,1382.68 12647.35,3207.18 18788.73,5525.66l-26871.83 26923.58 12253.61 12063.03 31407.87 -31468.5c5284.58,2787.45 10316.02,5857.24 15078.32,9227.27l-34279.35 34258.21 12348.48 11967.33c11822.13,-11814.53 23644.26,-23629.06 35466.39,-35443.59 4219.61,3956.59 8189.65,7985.15 12070.28,12247.25l-46810.22 46833.12m24029.61 29397.57l-12158.32 -12158.32 47459.8 -47447.05c3204.45,5222.65 6221.61,10187.73 8704.02,15611.69l-44005.5 43993.68z"/>
  </g>
  <g>
   <path d="M99819 87836.91l-94592.63 95214.02c-2145.11,-6852.09 -4048.87,-14158.53 -5169.79,-21287.34l27451.79 -24705.18 -26843.63 -26836.72c1382.68,-6380.02 3207.18,-12647.35 5525.66,-18788.74l33402.13 33350.4 12063.03 -12253.61 -37947.05 -37886.44c2787.45,-5284.57 5857.24,-10316.01 9227.27,-15078.32l40736.76 40757.92 11967.33 -12348.49c-11814.54,-11822.12 -30107.61,-30122.81 -41922.14,-41944.94 3956.59,-4219.61 7985.15,-8189.66 12247.25,-12070.28l53311.67 53288.77 542.35 588.95zm28855.22 -24618.55l-12158.32 12158.32 -53925.6 -53938.36c5222.65,-3204.45 10187.73,-6221.61 15611.69,-8704.02l50472.23 50484.06z"/>
   <path id="_1_0" d="M99819 87836.91l-94592.63 95214.02c-2145.11,-6852.09 -4048.87,-14158.53 -5169.79,-21287.34l27451.79 -24705.18 -26843.63 -26836.72c1382.68,-6380.02 3207.18,-12647.35 5525.66,-18788.74l33402.13 33350.4 12063.03 -12253.61 -37947.05 -37886.44c2787.45,-5284.57 5857.24,-10316.01 9227.27,-15078.32l40736.76 40757.92 11967.33 -12348.49c-11814.54,-11822.12 -30107.61,-30122.81 -41922.14,-41944.94 3956.59,-4219.61 7985.15,-8189.66 12247.25,-12070.28l53311.67 53288.77m29397.57 -24029.6l-12158.32 12158.32 -53925.6 -53938.36c5222.65,-3204.45 10187.73,-6221.61 15611.69,-8704.02l50472.23 50484.06z"/>
  </g>
 </g>
</svg>
